
<svg xmlns="http://www.w3.org/2000/svg" width="40" height="40" viewBox="0 0 40 40" fill="none">
  <path d="M20 0C8.954 0 0 8.954 0 20C0 31.046 8.954 40 20 40C31.046 40 40 31.046 40 20C40 8.954 31.046 0 20 0ZM11.25 11.25C11.25 9.179 12.929 7.5 15 7.5C17.071 7.5 18.75 9.179 18.75 11.25C18.75 13.321 17.071 15 15 15C12.929 15 11.25 13.321 11.25 11.25ZM8.75 18.75C10.821 18.75 12.5 20.429 12.5 22.5C12.5 24.571 10.821 26.25 8.75 26.25C6.679 26.25 5 24.571 5 22.5C5 20.429 6.679 18.75 8.75 18.75ZM22.5 35C20.429 35 18.75 33.321 18.75 31.25C18.75 29.179 20.429 27.5 22.5 27.5C24.571 27.5 26.25 29.179 26.25 31.25C26.25 33.321 24.571 35 22.5 35ZM31.25 26.25C29.179 26.25 27.5 24.571 27.5 22.5C27.5 20.429 29.179 18.75 31.25 18.75C33.321 18.75 35 20.429 35 22.5C35 24.571 33.321 26.25 31.25 26.25ZM31.25 15C29.179 15 27.5 13.321 27.5 11.25C27.5 9.179 29.179 7.5 31.25 7.5C33.321 7.5 35 9.179 35 11.25C35 13.321 33.321 15 31.25 15Z" fill="white"/>
</svg>
